<svg width="298" height="155" viewBox="0 0 298 155" fill="none" xmlns="http://www.w3.org/2000/svg">
<path d="M2 132.562C10.9901 134.479 19.7608 137.26 28.7712 139.087C46.1417 142.609 63.8655 143.365 81.5327 143.995C129.212 145.696 179.54 148.894 221.301 121.24C236.868 110.931 249.863 96.7082 257.386 79.5213C263.503 65.5458 267.538 48.4118 264.079 33.2295C257.662 5.0685 221.09 -1.7136 196.76 3.72543C184.983 6.35834 173.663 13.3283 164.579 21.1267C157.03 27.6075 146.866 39.9572 148.684 50.7981C149.711 56.9263 154.305 62.4136 158.333 66.7771C164.989 73.9887 172.703 80.29 180.586 86.1026C199.115 99.7657 219.471 111.202 239.148 123.108C254.224 132.23 269.698 144.196 286.723 149.573C289.754 150.53 293.501 151.377 296.148 153.142" stroke="black" stroke-width="3" stroke-linecap="round"/>
</svg>
