<svg width="149" height="142" viewBox="0 0 149 142" fill="none" xmlns="http://www.w3.org/2000/svg">
<path d="M117.806 2.13049C99.4399 2.13049 82.3806 1.5473 65.7437 10.5707C41.6413 23.6432 23.6308 45.4626 15.98 71.7412C12.9264 82.2299 11.9746 95.4842 13.5984 106.338C15.4356 118.618 26.221 126.575 36.7462 131.491C49.9706 137.668 65.0632 138.399 79.4068 139.346C96.0027 140.442 112.825 139.867 128.586 134.082C135.323 131.609 144.009 126.992 146.385 119.625C148.498 113.075 145.98 108.3 141.413 103.287C123.812 83.9691 97.6896 72.716 73.599 63.8024C59.3278 58.5221 45.8328 55.3846 30.5623 54.819C21.0583 54.467 11.4954 54.7773 1.98267 54.7773" stroke="#1C2961" stroke-width="3" stroke-linecap="round"/>
</svg>
